<?xml version="1.0" encoding="UTF-8" standalone="no"?>
<!DOCTYPE svg PUBLIC "-//W3C//DTD SVG 1.1//EN"
 "http://www.w3.org/Graphics/SVG/1.1/DTD/svg11.dtd">
<!-- Generated by graphviz version 2.43.0 (0)
 -->
<!-- Title: sourcetree Pages: 1 -->
<svg width="262pt" height="116pt"
 viewBox="0.00 0.00 262.00 116.00" xmlns="http://www.w3.org/2000/svg" xmlns:xlink="http://www.w3.org/1999/xlink">
<g id="graph0" class="graph" transform="scale(1 1) rotate(0) translate(4 112)">
<title>sourcetree</title>
<polygon fill="white" stroke="transparent" points="-4,4 -4,-112 258,-112 258,4 -4,4"/>
<!-- mulle&#45;musl -->
<g id="node1" class="node">
<title>mulle&#45;musl</title>
<polygon fill="yellow" stroke="black" points="206.5,-108 111.5,-108 111.5,-72 206.5,-72 206.5,-108"/>
<text text-anchor="middle" x="159" y="-86.3" font-family="Times,serif" font-size="14.00">mulle&#45;musl</text>
</g>
<!-- craftinfo/musl&#45;craftinfo -->
<g id="node2" class="node">
<title>craftinfo/musl&#45;craftinfo</title>
<polygon fill="lightgrey" stroke="black" points="182,-36 0,-36 0,0 182,0 182,-36"/>
<text text-anchor="middle" x="91" y="-14.3" font-family="Times,serif" font-size="14.00">craftinfo/musl&#45;craftinfo</text>
</g>
<!-- mulle&#45;musl&#45;&gt;craftinfo/musl&#45;craftinfo -->
<g id="edge1" class="edge">
<title>mulle&#45;musl&#45;&gt;craftinfo/musl&#45;craftinfo</title>
<path fill="none" stroke="black" d="M142.19,-71.7C133.87,-63.14 123.69,-52.66 114.61,-43.3"/>
<polygon fill="black" stroke="black" points="117.09,-40.84 107.62,-36.1 112.07,-45.72 117.09,-40.84"/>
</g>
<!-- musl -->
<g id="node3" class="node">
<title>musl</title>
<polygon fill="lightgrey" stroke="black" points="254,-36 200,-36 200,0 254,0 254,-36"/>
<text text-anchor="middle" x="227" y="-14.3" font-family="Times,serif" font-size="14.00">musl</text>
</g>
<!-- mulle&#45;musl&#45;&gt;musl -->
<g id="edge2" class="edge">
<title>mulle&#45;musl&#45;&gt;musl</title>
<path fill="none" stroke="black" d="M175.81,-71.7C184.13,-63.14 194.31,-52.66 203.39,-43.3"/>
<polygon fill="black" stroke="black" points="205.93,-45.72 210.38,-36.1 200.91,-40.84 205.93,-45.72"/>
</g>
</g>
</svg>
