<?xml version="1.0" encoding="UTF-8" standalone="no"?>
<!DOCTYPE svg PUBLIC "-//W3C//DTD SVG 1.1//EN"
 "http://www.w3.org/Graphics/SVG/1.1/DTD/svg11.dtd">
<!-- Generated by graphviz version 2.43.0 (0)
 -->
<!-- Title: sourcetree Pages: 1 -->
<svg width="196pt" height="116pt"
 viewBox="0.00 0.00 196.00 116.00" xmlns="http://www.w3.org/2000/svg" xmlns:xlink="http://www.w3.org/1999/xlink">
<g id="graph0" class="graph" transform="scale(1 1) rotate(0) translate(4 112)">
<title>sourcetree</title>
<polygon fill="white" stroke="transparent" points="-4,4 -4,-112 192,-112 192,4 -4,4"/>
<!-- mulle&#45;musl -->
<g id="node1" class="node">
<title>mulle&#45;musl</title>
<polygon fill="yellow" stroke="black" points="125.5,-108 30.5,-108 30.5,-72 125.5,-72 125.5,-108"/>
<text text-anchor="middle" x="78" y="-86.3" font-family="Times,serif" font-size="14.00">mulle&#45;musl</text>
</g>
<!-- musl -->
<g id="node2" class="node">
<title>musl</title>
<g id="a_node2"><a xlink:href="https://musl.libc.org//musl" xlink:title="musl">
<polygon fill="lightgrey" stroke="black" points="54,-36 0,-36 0,0 54,0 54,-36"/>
<text text-anchor="middle" x="27" y="-14.3" font-family="Times,serif" font-size="14.00">musl</text>
</a>
</g>
</g>
<!-- mulle&#45;musl&#45;&gt;musl -->
<g id="edge1" class="edge">
<title>mulle&#45;musl&#45;&gt;musl</title>
<path fill="none" stroke="black" d="M65.39,-71.7C59.4,-63.47 52.12,-53.48 45.52,-44.42"/>
<polygon fill="black" stroke="black" points="48.18,-42.13 39.46,-36.1 42.52,-46.25 48.18,-42.13"/>
</g>
<!-- musl&#45;craftinfo -->
<g id="node3" class="node">
<title>musl&#45;craftinfo</title>
<g id="a_node3"><a xlink:href="https://unknown.com/" xlink:title="musl&#45;craftinfo">
<polygon fill="lightgrey" stroke="black" points="188,-36 72,-36 72,0 188,0 188,-36"/>
<text text-anchor="middle" x="130" y="-14.3" font-family="Times,serif" font-size="14.00">musl&#45;craftinfo</text>
</a>
</g>
</g>
<!-- mulle&#45;musl&#45;&gt;musl&#45;craftinfo -->
<g id="edge2" class="edge">
<title>mulle&#45;musl&#45;&gt;musl&#45;craftinfo</title>
<path fill="none" stroke="black" d="M90.85,-71.7C97.03,-63.39 104.54,-53.28 111.32,-44.14"/>
<polygon fill="black" stroke="black" points="114.14,-46.22 117.29,-36.1 108.52,-42.04 114.14,-46.22"/>
</g>
</g>
</svg>
